<?xml version="1.0" standalone="no"?>
<!DOCTYPE svg PUBLIC "-//W3C//DTD SVG 20010904//EN"
 "http://www.w3.org/TR/2001/REC-SVG-20010904/DTD/svg10.dtd">
<svg version="1.0" xmlns="http://www.w3.org/2000/svg"
 width="2320.000000pt" height="2484.000000pt" viewBox="0 0 2320.000000 2484.000000"
 preserveAspectRatio="xMidYMid meet">
<metadata>
Created by potrace 1.16, written by Peter Selinger 2001-2019
</metadata>
<g transform="translate(0.000000,2484.000000) scale(0.100000,-0.100000)"
fill="#000000" stroke="none">
<path d="M4850 14046 c0 -6490 -4 -6014 56 -6284 77 -345 257 -713 505 -1032
91 -117 291 -324 424 -439 899 -775 2336 -1242 4270 -1390 528 -41 702 -46
1490 -46 789 0 979 6 1500 46 1681 128 2985 498 3889 1101 778 520 1250 1215
1351 1991 13 105 15 771 15 6053 l0 5934 -2927 0 -2928 0 -445 -1005 c-245
-552 -447 -1005 -450 -1005 -3 0 -206 452 -450 1005 l-445 1005 -2927 0 -2928
0 0 -5934z m5896 2762 c450 -810 825 -1485 834 -1501 l17 -27 834 1500 834
1500 1668 0 1667 0 0 -389 0 -389 -47 -28 c-141 -81 -262 -192 -325 -295 -71
-117 -68 -57 -68 -1427 0 -784 4 -1249 10 -1282 31 -161 153 -308 360 -431
l70 -41 0 -389 0 -389 -1580 0 -1580 0 2 391 3 392 90 56 c49 30 127 91 173
135 67 64 91 96 125 164 l42 85 3 966 2 966 -946 -1577 -947 -1578 -391 0
-391 0 -945 1575 -945 1575 -3 -927 c-1 -634 1 -945 9 -980 29 -141 159 -297
336 -403 l92 -55 1 -392 0 -393 -1580 0 -1580 0 0 390 0 389 33 17 c132 68
288 206 345 305 65 114 62 45 62 1429 0 1342 1 1299 -50 1400 -55 110 -170
222 -320 311 l-70 41 0 389 0 389 1669 0 1668 0 819 -1472z m-706 -5468 c0
-227 -4 -400 -9 -400 -18 0 -187 -118 -243 -169 -74 -68 -133 -156 -158 -238
-19 -62 -20 -92 -20 -712 0 -695 1 -706 53 -822 120 -268 469 -458 1007 -548
522 -88 1316 -88 1849 -1 420 69 733 204 903 389 63 70 126 187 149 276 17 69
25 1235 9 1338 -14 95 -64 198 -131 271 -59 65 -177 156 -252 196 l-47 25 0
397 0 398 1725 0 1725 0 0 -395 0 -394 -32 -17 c-74 -38 -187 -122 -250 -186
-87 -88 -134 -182 -148 -293 -7 -49 -10 -367 -9 -815 1 -759 -2 -838 -41
-1028 -249 -1204 -1734 -1792 -4525 -1792 -1752 0 -2991 234 -3733 704 -141
90 -210 144 -330 261 -261 252 -403 522 -473 895 -21 110 -22 150 -28 965 l-6
850 -23 56 c-60 148 -187 279 -369 379 l-43 24 0 393 0 393 1725 0 1725 0 0
-400z"/>
</g>
</svg>
